<svg xmlns="http://www.w3.org/2000/svg" width="255" height="74.608" viewBox="0 0 255 74.608"><defs><style>.a{fill:#374b5c;font-size:42px;font-family:LibreBaskerville-Bold, Libre Baskerville;font-weight:700;}.b{fill:#00dbd0;}</style></defs><g transform="translate(-139 -18.459)"><g transform="translate(33 -8)"><text class="a" transform="translate(193 72)"><tspan x="0" y="0">organic</tspan></text></g><g transform="translate(139 18.459)"><path class="b" d="M278.578,65.139a10.992,10.992,0,0,0,6.244,3.113V62.315a4.778,4.778,0,1,1,3.148,0v5.937A11.041,11.041,0,0,0,294.213,49.5L286.4,41.685,278.578,49.5A11.056,11.056,0,0,0,278.578,65.139Z" transform="translate(-247.706 -37.501)"/><path class="b" d="M468.43,277.369a4.763,4.763,0,0,1-4.491-3.2H458a11.041,11.041,0,0,0,18.749,6.244l7.818-7.818-7.818-7.818A11.041,11.041,0,0,0,458,271.018h5.937a4.769,4.769,0,1,1,4.491,6.352Z" transform="translate(-412.036 -235.287)"/><path class="b" d="M527.987,114.347a6.659,6.659,0,1,0,13.319,0v-6.659h-6.659A6.659,6.659,0,0,0,527.987,114.347Z" transform="translate(-474.997 -96.88)"/><path class="b" d="M675.97,215.295l3.045-3.045L675.97,209.2a4.306,4.306,0,1,0,0,6.09Z" transform="translate(-601.515 -187.074)"/><path class="b" d="M483.809,9.135a4.306,4.306,0,0,0,0-6.09L480.764,0l-3.045,3.045a4.306,4.306,0,0,0,6.09,6.09Z" transform="translate(-428.639)"/><path class="b" d="M65.632,267.814a4.763,4.763,0,0,1,4.491,3.2H76.06a11.041,11.041,0,0,0-18.749-6.244l-7.818,7.818,7.818,7.818a11.041,11.041,0,0,0,18.749-6.244H70.123a4.769,4.769,0,1,1-4.491-6.351Z" transform="translate(-44.526 -235.287)"/><path class="b" d="M118.173,121.007a6.659,6.659,0,0,0,0-13.319h-6.659v6.659A6.659,6.659,0,0,0,118.173,121.007Z" transform="translate(-100.322 -96.88)"/><path class="b" d="M9.135,215.295a4.306,4.306,0,0,0-6.09-6.09L0,212.25l3.045,3.045A4.306,4.306,0,0,0,9.135,215.295Z" transform="translate(0 -187.074)"/><path class="b" d="M217.286,9.135a4.306,4.306,0,0,0,0-6.09L214.241,0,211.2,3.045a4.306,4.306,0,0,0,6.09,6.09Z" transform="translate(-188.865)"/><path class="b" d="M294.213,440.111A10.991,10.991,0,0,0,287.969,437v5.937a4.778,4.778,0,1,1-3.148,0V437a11.041,11.041,0,0,0-6.244,18.749l7.818,7.818,7.818-7.818A11.056,11.056,0,0,0,294.213,440.111Z" transform="translate(-247.706 -393.139)"/><path class="b" d="M534.646,503a6.659,6.659,0,0,0,0,13.319h6.659v-6.659A6.66,6.66,0,0,0,534.646,503Z" transform="translate(-474.997 -452.518)"/><path class="b" d="M669.88,450.9a4.306,4.306,0,0,0,6.09,6.09l3.045-3.045L675.97,450.9A4.306,4.306,0,0,0,669.88,450.9Z" transform="translate(-601.515 -404.511)"/><path class="b" d="M477.719,641.069a4.306,4.306,0,0,0,0,6.09l3.045,3.045,3.045-3.045a4.306,4.306,0,1,0-6.09-6.09Z" transform="translate(-428.639 -575.596)"/><path class="b" d="M124.833,509.659a6.659,6.659,0,1,0-13.319,0v6.659h6.659A6.659,6.659,0,0,0,124.833,509.659Z" transform="translate(-100.322 -452.518)"/><path class="b" d="M3.045,450.9,0,453.944l3.045,3.045a4.306,4.306,0,1,0,0-6.09Z" transform="translate(0 -404.511)"/><path class="b" d="M211.2,641.069a4.306,4.306,0,0,0,0,6.09l3.045,3.045,3.045-3.045a4.306,4.306,0,1,0-6.09-6.09Z" transform="translate(-188.865 -575.596)"/></g></g></svg>